<?xml version="1.0" standalone="no"?>
<!DOCTYPE svg PUBLIC "-//W3C//DTD SVG 20010904//EN"
 "http://www.w3.org/TR/2001/REC-SVG-20010904/DTD/svg10.dtd">
<svg version="1.0" xmlns="http://www.w3.org/2000/svg"
 width="512.000000pt" height="512.000000pt" viewBox="0 0 512.000000 512.000000"
 preserveAspectRatio="xMidYMid meet">

<g transform="translate(0.000000,512.000000) scale(0.100000,-0.100000)"
fill="#000000" stroke="none">
<path d="M2325 5109 c-896 -92 -1661 -617 -2054 -1410 -124 -249 -197 -478
-243 -760 -29 -181 -31 -555 -5 -729 74 -477 262 -909 552 -1265 229 -281 523
-515 850 -675 260 -128 483 -199 760 -242 200 -31 550 -31 750 0 278 43 502
115 761 242 261 129 453 266 667 478 210 207 360 417 493 687 125 255 196 483
241 775 26 174 24 548 -5 729 -118 729 -514 1350 -1116 1752 -132 88 -390 219
-537 273 -139 51 -348 104 -501 127 -154 23 -474 33 -613 18z m595 -447 c802
-143 1464 -733 1686 -1504 65 -226 79 -333 78 -603 -1 -269 -14 -369 -78 -590
-200 -692 -759 -1251 -1451 -1451 -224 -65 -320 -78 -595 -78 -275 0 -371 13
-595 78 -692 200 -1251 759 -1451 1451 -65 224 -78 320 -78 595 0 207 4 263
22 360 82 446 283 831 597 1145 344 344 777 554 1265 614 127 16 468 6 600
-17z"/>
<path d="M2211 3443 c-18 -9 -42 -31 -52 -47 -18 -30 -19 -68 -19 -839 0 -731
2 -812 16 -837 38 -63 123 -79 189 -35 20 14 272 197 560 405 427 310 526 387
540 416 19 39 15 86 -10 121 -18 26 -1093 809 -1130 823 -36 14 -54 12 -94 -7z"/>
</g>
</svg>
