<svg id="svg" version="1.1" xmlns="http://www.w3.org/2000/svg" xmlns:xlink="http://www.w3.org/1999/xlink" width="400" height="400" viewBox="0, 0, 400,400"><g id="svgg"><path id="path0" d="M178.700 0.273 C 176.555 0.359,174.800 0.602,174.800 0.814 C 174.800 1.027,173.551 1.200,172.024 1.200 C 170.497 1.200,169.136 1.380,169.000 1.600 C 168.864 1.820,167.773 2.000,166.576 2.000 C 165.379 2.000,164.400 2.180,164.400 2.400 C 164.400 2.620,163.410 2.800,162.200 2.800 C 160.990 2.800,160.000 2.980,160.000 3.200 C 160.000 3.420,159.280 3.600,158.400 3.600 C 157.520 3.600,156.800 3.780,156.800 4.000 C 156.800 4.220,156.001 4.400,155.024 4.400 C 154.047 4.400,153.136 4.580,153.000 4.800 C 152.864 5.020,152.043 5.200,151.176 5.200 C 150.309 5.200,149.600 5.380,149.600 5.600 C 149.600 5.820,148.970 6.000,148.200 6.000 C 147.430 6.000,146.800 6.180,146.800 6.400 C 146.800 6.620,146.170 6.800,145.400 6.800 C 144.630 6.800,144.000 6.980,144.000 7.200 C 144.000 7.420,143.370 7.600,142.600 7.600 C 141.830 7.600,141.200 7.780,141.200 8.000 C 141.200 8.220,140.759 8.400,140.220 8.400 C 139.040 8.400,130.256 11.245,130.067 11.688 C 129.993 11.860,129.586 12.000,129.161 12.000 C 128.737 12.000,128.032 12.180,127.595 12.400 C 127.158 12.620,126.442 12.980,126.005 13.200 C 125.568 13.420,124.938 13.600,124.605 13.600 C 124.272 13.600,124.000 13.780,124.000 14.000 C 124.000 14.220,123.561 14.400,123.024 14.400 C 122.487 14.400,121.936 14.580,121.800 14.800 C 121.664 15.020,121.203 15.200,120.776 15.200 C 120.349 15.200,120.000 15.380,120.000 15.600 C 120.000 15.820,119.640 16.000,119.200 16.000 C 118.760 16.000,118.400 16.180,118.400 16.400 C 118.400 16.620,118.040 16.800,117.600 16.800 C 117.160 16.800,116.800 16.980,116.800 17.200 C 116.800 17.420,116.528 17.600,116.195 17.600 C 115.862 17.600,115.277 17.760,114.895 17.956 C 114.513 18.152,113.300 18.737,112.200 19.256 C 111.100 19.775,110.140 20.335,110.067 20.500 C 109.993 20.665,109.588 20.800,109.167 20.800 C 108.745 20.800,108.400 20.980,108.400 21.200 C 108.400 21.420,108.055 21.600,107.633 21.600 C 107.212 21.600,106.807 21.735,106.733 21.900 C 106.566 22.276,104.436 23.575,103.500 23.871 C 103.115 23.993,102.800 24.252,102.800 24.447 C 102.800 24.641,102.536 24.800,102.214 24.800 C 101.401 24.800,98.800 26.076,98.800 26.474 C 98.800 26.653,98.440 26.800,98.000 26.800 C 97.560 26.800,97.200 26.980,97.200 27.200 C 97.200 27.420,97.007 27.600,96.772 27.600 C 96.537 27.600,95.559 28.140,94.600 28.800 C 93.641 29.460,92.703 30.000,92.516 30.000 C 92.329 30.000,91.917 30.360,91.600 30.800 C 91.283 31.240,90.743 31.600,90.400 31.600 C 90.057 31.600,89.517 31.960,89.200 32.400 C 88.883 32.840,88.343 33.200,88.000 33.200 C 87.657 33.200,87.117 33.560,86.800 34.000 C 86.483 34.440,85.991 34.800,85.708 34.800 C 85.425 34.800,84.628 35.340,83.937 36.000 C 83.246 36.660,82.478 37.200,82.229 37.200 C 81.980 37.200,81.517 37.560,81.200 38.000 C 80.883 38.440,80.393 38.800,80.112 38.800 C 79.831 38.800,78.859 39.520,77.952 40.400 C 77.045 41.280,76.164 42.000,75.994 42.000 C 75.824 42.000,75.107 42.540,74.400 43.200 C 73.693 43.860,72.958 44.400,72.766 44.400 C 72.574 44.400,71.427 45.390,70.217 46.600 C 69.007 47.810,67.843 48.800,67.629 48.800 C 67.416 48.800,65.297 50.770,62.921 53.179 C 57.684 58.486,58.486 57.684,53.179 62.921 C 50.770 65.297,48.800 67.416,48.800 67.629 C 48.800 67.843,47.810 69.007,46.600 70.217 C 45.390 71.427,44.400 72.574,44.400 72.766 C 44.400 72.958,43.860 73.693,43.200 74.400 C 42.540 75.107,42.000 75.824,42.000 75.994 C 42.000 76.164,41.280 77.045,40.400 77.952 C 39.520 78.859,38.800 79.831,38.800 80.112 C 38.800 80.393,38.440 80.883,38.000 81.200 C 37.560 81.517,37.200 81.980,37.200 82.229 C 37.200 82.478,36.660 83.246,36.000 83.937 C 35.340 84.628,34.800 85.425,34.800 85.708 C 34.800 85.991,34.440 86.483,34.000 86.800 C 33.560 87.117,33.200 87.657,33.200 88.000 C 33.200 88.343,32.840 88.883,32.400 89.200 C 31.960 89.517,31.600 90.082,31.600 90.455 C 31.600 90.828,31.453 91.193,31.272 91.267 C 30.807 91.456,27.600 96.269,27.600 96.778 C 27.600 97.010,27.420 97.200,27.200 97.200 C 26.980 97.200,26.800 97.560,26.800 98.000 C 26.800 98.440,26.653 98.800,26.474 98.800 C 26.126 98.800,24.800 101.358,24.800 102.030 C 24.800 102.252,24.440 102.820,24.000 103.292 C 23.560 103.764,23.200 104.387,23.200 104.675 C 23.200 104.964,23.020 105.200,22.800 105.200 C 22.580 105.200,22.400 105.560,22.400 106.000 C 22.400 106.440,22.220 106.800,22.000 106.800 C 21.780 106.800,21.600 107.160,21.600 107.600 C 21.600 108.040,21.420 108.400,21.200 108.400 C 20.980 108.400,20.800 108.745,20.800 109.167 C 20.800 109.588,20.665 109.993,20.500 110.067 C 20.068 110.259,18.400 113.572,18.400 114.238 C 18.400 114.547,18.220 114.800,18.000 114.800 C 17.780 114.800,17.600 115.250,17.600 115.800 C 17.600 116.350,17.420 116.800,17.200 116.800 C 16.980 116.800,16.800 117.160,16.800 117.600 C 16.800 118.040,16.620 118.400,16.400 118.400 C 16.180 118.400,16.000 118.760,16.000 119.200 C 16.000 119.640,15.820 120.000,15.600 120.000 C 15.380 120.000,15.200 120.349,15.200 120.776 C 15.200 121.203,15.020 121.664,14.800 121.800 C 14.580 121.936,14.400 122.487,14.400 123.024 C 14.400 123.561,14.220 124.000,14.000 124.000 C 13.780 124.000,13.600 124.272,13.600 124.605 C 13.600 124.938,13.392 125.613,13.138 126.105 C 12.145 128.024,12.000 128.415,12.000 129.161 C 12.000 129.586,11.860 129.993,11.688 130.067 C 11.250 130.254,8.400 139.033,8.400 140.196 C 8.400 140.722,8.220 141.264,8.000 141.400 C 7.780 141.536,7.600 142.177,7.600 142.824 C 7.600 143.471,7.420 144.000,7.200 144.000 C 6.980 144.000,6.800 144.630,6.800 145.400 C 6.800 146.170,6.620 146.800,6.400 146.800 C 6.180 146.800,6.000 147.430,6.000 148.200 C 6.000 148.970,5.820 149.600,5.600 149.600 C 5.380 149.600,5.200 150.309,5.200 151.176 C 5.200 152.043,5.020 152.864,4.800 153.000 C 4.580 153.136,4.400 154.047,4.400 155.024 C 4.400 156.001,4.220 156.800,4.000 156.800 C 3.780 156.800,3.600 157.520,3.600 158.400 C 3.600 159.280,3.420 160.000,3.200 160.000 C 2.980 160.000,2.800 160.990,2.800 162.200 C 2.800 163.410,2.620 164.400,2.400 164.400 C 2.178 164.400,2.000 165.467,2.000 166.800 C 2.000 168.133,1.822 169.200,1.600 169.200 C 1.373 169.200,1.200 170.373,1.200 171.920 C 1.200 173.563,1.002 174.838,0.700 175.140 C -0.029 175.869,-0.029 224.131,0.700 224.860 C 1.002 225.162,1.200 226.437,1.200 228.080 C 1.200 229.627,1.373 230.800,1.600 230.800 C 1.822 230.800,2.000 231.867,2.000 233.200 C 2.000 234.533,2.178 235.600,2.400 235.600 C 2.620 235.600,2.800 236.590,2.800 237.800 C 2.800 239.010,2.980 240.000,3.200 240.000 C 3.420 240.000,3.600 240.720,3.600 241.600 C 3.600 242.480,3.780 243.200,4.000 243.200 C 4.220 243.200,4.400 243.999,4.400 244.976 C 4.400 245.953,4.580 246.864,4.800 247.000 C 5.020 247.136,5.200 247.957,5.200 248.824 C 5.200 249.691,5.380 250.400,5.600 250.400 C 5.820 250.400,6.000 251.030,6.000 251.800 C 6.000 252.570,6.180 253.200,6.400 253.200 C 6.620 253.200,6.800 253.830,6.800 254.600 C 6.800 255.370,6.980 256.000,7.200 256.000 C 7.420 256.000,7.600 256.529,7.600 257.176 C 7.600 257.823,7.780 258.464,8.000 258.600 C 8.220 258.736,8.400 259.278,8.400 259.804 C 8.400 260.967,11.250 269.746,11.688 269.933 C 11.860 270.007,12.000 270.414,12.000 270.839 C 12.000 271.263,12.180 271.968,12.400 272.405 C 12.620 272.842,12.980 273.558,13.200 273.995 C 13.420 274.432,13.600 275.062,13.600 275.395 C 13.600 275.728,13.780 276.000,14.000 276.000 C 14.220 276.000,14.400 276.439,14.400 276.976 C 14.400 277.513,14.580 278.064,14.800 278.200 C 15.020 278.336,15.200 278.797,15.200 279.224 C 15.200 279.651,15.380 280.000,15.600 280.000 C 15.820 280.000,16.000 280.360,16.000 280.800 C 16.000 281.240,16.180 281.600,16.400 281.600 C 16.620 281.600,16.800 281.960,16.800 282.400 C 16.800 282.840,16.980 283.200,17.200 283.200 C 17.420 283.200,17.600 283.650,17.600 284.200 C 17.600 284.750,17.780 285.200,18.000 285.200 C 18.220 285.200,18.400 285.453,18.400 285.762 C 18.400 286.428,20.068 289.741,20.500 289.933 C 20.665 290.007,20.800 290.412,20.800 290.833 C 20.800 291.255,20.980 291.600,21.200 291.600 C 21.420 291.600,21.600 291.960,21.600 292.400 C 21.600 292.840,21.780 293.200,22.000 293.200 C 22.220 293.200,22.400 293.560,22.400 294.000 C 22.400 294.440,22.580 294.800,22.800 294.800 C 23.020 294.800,23.200 295.036,23.200 295.325 C 23.200 295.613,23.560 296.236,24.000 296.708 C 24.440 297.180,24.800 297.748,24.800 297.970 C 24.800 298.642,26.126 301.200,26.474 301.200 C 26.653 301.200,26.800 301.560,26.800 302.000 C 26.800 302.440,26.980 302.800,27.200 302.800 C 27.420 302.800,27.600 302.990,27.600 303.222 C 27.600 303.731,30.807 308.544,31.272 308.733 C 31.453 308.807,31.600 309.172,31.600 309.545 C 31.600 309.918,31.960 310.483,32.400 310.800 C 32.840 311.117,33.200 311.657,33.200 312.000 C 33.200 312.343,33.560 312.883,34.000 313.200 C 34.440 313.517,34.800 314.009,34.800 314.292 C 34.800 314.575,35.340 315.372,36.000 316.063 C 36.660 316.754,37.200 317.522,37.200 317.771 C 37.200 318.020,37.560 318.483,38.000 318.800 C 38.440 319.117,38.800 319.607,38.800 319.888 C 38.800 320.169,39.520 321.141,40.400 322.048 C 41.280 322.955,42.000 323.836,42.000 324.006 C 42.000 324.176,42.540 324.893,43.200 325.600 C 43.860 326.307,44.400 327.042,44.400 327.234 C 44.400 327.426,45.390 328.573,46.600 329.783 C 47.810 330.993,48.800 332.157,48.800 332.371 C 48.800 332.584,50.770 334.703,53.179 337.079 C 58.486 342.316,57.684 341.514,62.921 346.821 C 65.297 349.230,67.416 351.200,67.629 351.200 C 67.843 351.200,69.007 352.190,70.217 353.400 C 71.427 354.610,72.571 355.600,72.758 355.600 C 72.946 355.600,73.787 356.230,74.628 357.000 C 75.469 357.770,76.295 358.400,76.465 358.400 C 76.635 358.400,77.403 359.030,78.173 359.800 C 78.943 360.570,79.810 361.200,80.098 361.200 C 80.387 361.200,80.883 361.560,81.200 362.000 C 81.517 362.440,81.980 362.800,82.229 362.800 C 82.478 362.800,83.246 363.340,83.937 364.000 C 84.628 364.660,85.425 365.200,85.708 365.200 C 85.991 365.200,86.483 365.560,86.800 366.000 C 87.117 366.440,87.657 366.800,88.000 366.800 C 88.343 366.800,88.883 367.160,89.200 367.600 C 89.517 368.040,90.057 368.400,90.400 368.400 C 90.743 368.400,91.283 368.760,91.600 369.200 C 91.917 369.640,92.329 370.000,92.516 370.000 C 92.703 370.000,93.641 370.540,94.600 371.200 C 95.559 371.860,96.537 372.400,96.772 372.400 C 97.007 372.400,97.200 372.580,97.200 372.800 C 97.200 373.020,97.560 373.200,98.000 373.200 C 98.440 373.200,98.800 373.347,98.800 373.526 C 98.800 373.915,101.394 375.200,102.180 375.200 C 102.484 375.200,102.793 375.335,102.867 375.500 C 103.034 375.876,105.164 377.175,106.100 377.471 C 106.485 377.593,106.800 377.852,106.800 378.047 C 106.800 378.241,107.160 378.400,107.600 378.400 C 108.040 378.400,108.400 378.580,108.400 378.800 C 108.400 379.020,108.745 379.200,109.167 379.200 C 109.588 379.200,109.993 379.335,110.067 379.500 C 110.140 379.665,111.100 380.225,112.200 380.744 C 113.300 381.263,114.513 381.848,114.895 382.044 C 115.277 382.240,115.862 382.400,116.195 382.400 C 116.528 382.400,116.800 382.580,116.800 382.800 C 116.800 383.020,117.160 383.200,117.600 383.200 C 118.040 383.200,118.400 383.380,118.400 383.600 C 118.400 383.820,118.760 384.000,119.200 384.000 C 119.640 384.000,120.000 384.180,120.000 384.400 C 120.000 384.620,120.349 384.800,120.776 384.800 C 121.203 384.800,121.664 384.980,121.800 385.200 C 121.936 385.420,122.487 385.600,123.024 385.600 C 123.561 385.600,124.000 385.780,124.000 386.000 C 124.000 386.220,124.272 386.400,124.605 386.400 C 124.938 386.400,125.568 386.580,126.005 386.800 C 126.442 387.020,127.158 387.380,127.595 387.600 C 128.032 387.820,128.737 388.000,129.161 388.000 C 129.586 388.000,129.993 388.140,130.067 388.312 C 130.256 388.755,139.040 391.600,140.220 391.600 C 140.759 391.600,141.200 391.780,141.200 392.000 C 141.200 392.220,141.830 392.400,142.600 392.400 C 143.370 392.400,144.000 392.580,144.000 392.800 C 144.000 393.020,144.630 393.200,145.400 393.200 C 146.170 393.200,146.800 393.380,146.800 393.600 C 146.800 393.820,147.430 394.000,148.200 394.000 C 148.970 394.000,149.600 394.180,149.600 394.400 C 149.600 394.620,150.309 394.800,151.176 394.800 C 152.043 394.800,152.864 394.980,153.000 395.200 C 153.136 395.420,154.047 395.600,155.024 395.600 C 156.001 395.600,156.800 395.780,156.800 396.000 C 156.800 396.220,157.520 396.400,158.400 396.400 C 159.280 396.400,160.000 396.580,160.000 396.800 C 160.000 397.020,160.990 397.200,162.200 397.200 C 163.410 397.200,164.400 397.380,164.400 397.600 C 164.400 397.820,165.379 398.000,166.576 398.000 C 167.773 398.000,168.864 398.180,169.000 398.400 C 169.136 398.620,170.482 398.800,171.990 398.800 C 173.829 398.800,174.788 398.965,174.900 399.300 C 175.144 400.032,224.856 400.032,225.100 399.300 C 225.212 398.965,226.171 398.800,228.010 398.800 C 229.518 398.800,230.864 398.620,231.000 398.400 C 231.136 398.180,232.227 398.000,233.424 398.000 C 234.621 398.000,235.600 397.820,235.600 397.600 C 235.600 397.380,236.590 397.200,237.800 397.200 C 239.010 397.200,240.000 397.020,240.000 396.800 C 240.000 396.580,240.720 396.400,241.600 396.400 C 242.480 396.400,243.200 396.220,243.200 396.000 C 243.200 395.780,244.100 395.600,245.200 395.600 C 246.300 395.600,247.200 395.420,247.200 395.200 C 247.200 394.980,247.920 394.800,248.800 394.800 C 249.680 394.800,250.400 394.620,250.400 394.400 C 250.400 394.180,251.030 394.000,251.800 394.000 C 252.570 394.000,253.200 393.820,253.200 393.600 C 253.200 393.380,253.830 393.200,254.600 393.200 C 255.370 393.200,256.000 393.020,256.000 392.800 C 256.000 392.580,256.630 392.400,257.400 392.400 C 258.170 392.400,258.800 392.220,258.800 392.000 C 258.800 391.780,259.247 391.600,259.794 391.600 C 260.688 391.600,268.047 389.348,270.300 388.385 C 270.795 388.173,271.695 387.799,272.300 387.553 C 272.905 387.308,273.713 386.948,274.095 386.753 C 274.477 386.559,275.062 386.400,275.395 386.400 C 275.728 386.400,276.000 386.220,276.000 386.000 C 276.000 385.780,276.439 385.600,276.976 385.600 C 277.513 385.600,278.064 385.420,278.200 385.200 C 278.336 384.980,278.797 384.800,279.224 384.800 C 279.651 384.800,280.000 384.620,280.000 384.400 C 280.000 384.180,280.360 384.000,280.800 384.000 C 281.240 384.000,281.600 383.820,281.600 383.600 C 281.600 383.380,281.960 383.200,282.400 383.200 C 282.840 383.200,283.200 383.020,283.200 382.800 C 283.200 382.580,283.650 382.400,284.200 382.400 C 284.750 382.400,285.200 382.220,285.200 382.000 C 285.200 381.780,285.453 381.600,285.762 381.600 C 286.428 381.600,289.741 379.932,289.933 379.500 C 290.007 379.335,290.412 379.200,290.833 379.200 C 291.255 379.200,291.600 379.020,291.600 378.800 C 291.600 378.580,291.960 378.400,292.400 378.400 C 292.840 378.400,293.200 378.220,293.200 378.000 C 293.200 377.780,293.560 377.600,294.000 377.600 C 294.440 377.600,294.800 377.420,294.800 377.200 C 294.800 376.980,295.036 376.800,295.325 376.800 C 295.613 376.800,296.236 376.440,296.708 376.000 C 297.180 375.560,297.748 375.200,297.970 375.200 C 298.642 375.200,301.200 373.874,301.200 373.526 C 301.200 373.347,301.560 373.200,302.000 373.200 C 302.440 373.200,302.800 373.020,302.800 372.800 C 302.800 372.580,302.993 372.400,303.228 372.400 C 303.463 372.400,304.441 371.860,305.400 371.200 C 306.359 370.540,307.297 370.000,307.484 370.000 C 307.671 370.000,308.083 369.640,308.400 369.200 C 308.717 368.760,309.257 368.400,309.600 368.400 C 309.943 368.400,310.483 368.040,310.800 367.600 C 311.117 367.160,311.657 366.800,312.000 366.800 C 312.343 366.800,312.883 366.440,313.200 366.000 C 313.517 365.560,314.009 365.200,314.292 365.200 C 314.575 365.200,315.372 364.660,316.063 364.000 C 316.754 363.340,317.522 362.800,317.771 362.800 C 318.020 362.800,318.483 362.440,318.800 362.000 C 319.117 361.560,319.625 361.200,319.928 361.200 C 320.231 361.200,320.983 360.660,321.600 360.000 C 322.217 359.340,322.881 358.800,323.077 358.800 C 323.273 358.800,324.101 358.170,324.918 357.400 C 325.734 356.630,326.563 356.000,326.760 356.000 C 326.958 356.000,327.995 355.143,329.065 354.095 C 330.135 353.047,331.638 351.745,332.405 351.201 C 333.172 350.658,335.561 348.410,337.713 346.207 C 339.865 344.003,341.810 342.020,342.034 341.800 C 348.386 335.579,351.200 332.684,351.200 332.371 C 351.200 332.157,352.190 330.993,353.400 329.783 C 354.610 328.573,355.600 327.429,355.600 327.242 C 355.600 327.054,356.230 326.213,357.000 325.372 C 357.770 324.531,358.400 323.705,358.400 323.535 C 358.400 323.365,359.030 322.597,359.800 321.827 C 360.570 321.057,361.200 320.190,361.200 319.902 C 361.200 319.613,361.560 319.117,362.000 318.800 C 362.440 318.483,362.800 318.020,362.800 317.771 C 362.800 317.522,363.340 316.754,364.000 316.063 C 364.660 315.372,365.200 314.575,365.200 314.292 C 365.200 314.009,365.560 313.517,366.000 313.200 C 366.440 312.883,366.800 312.343,366.800 312.000 C 366.800 311.657,367.160 311.117,367.600 310.800 C 368.040 310.483,368.400 309.943,368.400 309.600 C 368.400 309.257,368.760 308.717,369.200 308.400 C 369.640 308.083,370.000 307.671,370.000 307.484 C 370.000 307.297,370.540 306.359,371.200 305.400 C 371.860 304.441,372.400 303.463,372.400 303.228 C 372.400 302.993,372.580 302.800,372.800 302.800 C 373.020 302.800,373.200 302.440,373.200 302.000 C 373.200 301.560,373.347 301.200,373.526 301.200 C 373.874 301.200,375.200 298.642,375.200 297.970 C 375.200 297.748,375.560 297.180,376.000 296.708 C 376.440 296.236,376.800 295.613,376.800 295.325 C 376.800 295.036,376.980 294.800,377.200 294.800 C 377.420 294.800,377.600 294.440,377.600 294.000 C 377.600 293.560,377.780 293.200,378.000 293.200 C 378.220 293.200,378.400 292.840,378.400 292.400 C 378.400 291.960,378.580 291.600,378.800 291.600 C 379.020 291.600,379.200 291.255,379.200 290.833 C 379.200 290.412,379.335 290.007,379.500 289.933 C 379.932 289.741,381.600 286.428,381.600 285.762 C 381.600 285.453,381.780 285.200,382.000 285.200 C 382.220 285.200,382.400 284.750,382.400 284.200 C 382.400 283.650,382.580 283.200,382.800 283.200 C 383.020 283.200,383.200 282.840,383.200 282.400 C 383.200 281.960,383.380 281.600,383.600 281.600 C 383.820 281.600,384.000 281.240,384.000 280.800 C 384.000 280.360,384.180 280.000,384.400 280.000 C 384.620 280.000,384.800 279.651,384.800 279.224 C 384.800 278.797,384.980 278.336,385.200 278.200 C 385.420 278.064,385.600 277.513,385.600 276.976 C 385.600 276.439,385.780 276.000,386.000 276.000 C 386.220 276.000,386.400 275.728,386.400 275.395 C 386.400 275.062,386.580 274.432,386.800 273.995 C 387.020 273.558,387.380 272.842,387.600 272.405 C 387.820 271.968,388.000 271.263,388.000 270.839 C 388.000 270.414,388.140 270.007,388.312 269.933 C 388.750 269.746,391.600 260.967,391.600 259.804 C 391.600 259.278,391.780 258.736,392.000 258.600 C 392.220 258.464,392.400 257.823,392.400 257.176 C 392.400 256.529,392.580 256.000,392.800 256.000 C 393.020 256.000,393.200 255.370,393.200 254.600 C 393.200 253.830,393.380 253.200,393.600 253.200 C 393.820 253.200,394.000 252.570,394.000 251.800 C 394.000 251.030,394.180 250.400,394.400 250.400 C 394.620 250.400,394.800 249.691,394.800 248.824 C 394.800 247.957,394.980 247.136,395.200 247.000 C 395.420 246.864,395.600 245.953,395.600 244.976 C 395.600 243.999,395.780 243.200,396.000 243.200 C 396.220 243.200,396.400 242.480,396.400 241.600 C 396.400 240.720,396.580 240.000,396.800 240.000 C 397.020 240.000,397.200 239.010,397.200 237.800 C 397.200 236.590,397.380 235.600,397.600 235.600 C 397.822 235.600,398.000 234.533,398.000 233.200 C 398.000 231.867,398.178 230.800,398.400 230.800 C 398.627 230.800,398.800 229.627,398.800 228.080 C 398.800 226.437,398.998 225.162,399.300 224.860 C 400.029 224.131,400.029 175.869,399.300 175.140 C 398.998 174.838,398.800 173.563,398.800 171.920 C 398.800 170.373,398.627 169.200,398.400 169.200 C 398.178 169.200,398.000 168.133,398.000 166.800 C 398.000 165.467,397.822 164.400,397.600 164.400 C 397.380 164.400,397.200 163.410,397.200 162.200 C 397.200 160.990,397.020 160.000,396.800 160.000 C 396.580 160.000,396.400 159.280,396.400 158.400 C 396.400 157.520,396.220 156.800,396.000 156.800 C 395.780 156.800,395.600 156.001,395.600 155.024 C 395.600 154.047,395.420 153.136,395.200 153.000 C 394.980 152.864,394.800 152.043,394.800 151.176 C 394.800 150.309,394.620 149.600,394.400 149.600 C 394.180 149.600,394.000 148.970,394.000 148.200 C 394.000 147.430,393.820 146.800,393.600 146.800 C 393.380 146.800,393.200 146.170,393.200 145.400 C 393.200 144.630,393.020 144.000,392.800 144.000 C 392.580 144.000,392.400 143.471,392.400 142.824 C 392.400 142.177,392.220 141.536,392.000 141.400 C 391.780 141.264,391.600 140.722,391.600 140.196 C 391.600 139.033,388.750 130.254,388.312 130.067 C 388.140 129.993,388.000 129.586,388.000 129.161 C 388.000 128.737,387.820 128.032,387.600 127.595 C 387.380 127.158,387.020 126.442,386.800 126.005 C 386.580 125.568,386.400 124.938,386.400 124.605 C 386.400 124.272,386.220 124.000,386.000 124.000 C 385.780 124.000,385.600 123.561,385.600 123.024 C 385.600 122.487,385.420 121.936,385.200 121.800 C 384.980 121.664,384.800 121.203,384.800 120.776 C 384.800 120.349,384.620 120.000,384.400 120.000 C 384.180 120.000,384.000 119.640,384.000 119.200 C 384.000 118.760,383.820 118.400,383.600 118.400 C 383.380 118.400,383.200 118.040,383.200 117.600 C 383.200 117.160,383.020 116.800,382.800 116.800 C 382.580 116.800,382.400 116.350,382.400 115.800 C 382.400 115.250,382.220 114.800,382.000 114.800 C 381.780 114.800,381.600 114.547,381.600 114.238 C 381.600 113.572,379.932 110.259,379.500 110.067 C 379.335 109.993,379.200 109.588,379.200 109.167 C 379.200 108.745,379.020 108.400,378.800 108.400 C 378.580 108.400,378.400 108.040,378.400 107.600 C 378.400 107.160,378.220 106.800,378.000 106.800 C 377.780 106.800,377.600 106.440,377.600 106.000 C 377.600 105.560,377.420 105.200,377.200 105.200 C 376.980 105.200,376.800 104.964,376.800 104.675 C 376.800 104.387,376.440 103.764,376.000 103.292 C 375.560 102.820,375.200 102.252,375.200 102.030 C 375.200 101.358,373.874 98.800,373.526 98.800 C 373.347 98.800,373.200 98.440,373.200 98.000 C 373.200 97.560,373.020 97.200,372.800 97.200 C 372.580 97.200,372.400 97.007,372.400 96.772 C 372.400 96.537,371.860 95.559,371.200 94.600 C 370.540 93.641,370.000 92.703,370.000 92.516 C 370.000 92.329,369.640 91.917,369.200 91.600 C 368.760 91.283,368.400 90.743,368.400 90.400 C 368.400 90.057,368.040 89.517,367.600 89.200 C 367.160 88.883,366.800 88.343,366.800 88.000 C 366.800 87.657,366.440 87.117,366.000 86.800 C 365.560 86.483,365.200 85.991,365.200 85.708 C 365.200 85.425,364.660 84.628,364.000 83.937 C 363.340 83.246,362.800 82.478,362.800 82.229 C 362.800 81.980,362.440 81.517,362.000 81.200 C 361.560 80.883,361.200 80.387,361.200 80.098 C 361.200 79.810,360.570 78.943,359.800 78.173 C 359.030 77.403,358.400 76.635,358.400 76.465 C 358.400 76.295,357.770 75.469,357.000 74.628 C 356.230 73.787,355.600 72.946,355.600 72.758 C 355.600 72.571,354.610 71.427,353.400 70.217 C 352.190 69.007,351.200 67.843,351.200 67.629 C 351.200 67.316,348.386 64.421,342.034 58.200 C 341.810 57.980,339.865 55.997,337.713 53.793 C 335.561 51.590,333.172 49.342,332.405 48.799 C 331.638 48.255,330.135 46.953,329.065 45.905 C 327.995 44.857,326.949 44.000,326.741 44.000 C 326.534 44.000,325.930 43.595,325.401 43.100 C 323.937 41.731,323.260 41.200,322.977 41.200 C 322.836 41.200,322.217 40.660,321.600 40.000 C 320.983 39.340,320.231 38.800,319.928 38.800 C 319.625 38.800,319.117 38.440,318.800 38.000 C 318.483 37.560,318.020 37.200,317.771 37.200 C 317.522 37.200,316.754 36.660,316.063 36.000 C 315.372 35.340,314.575 34.800,314.292 34.800 C 314.009 34.800,313.517 34.440,313.200 34.000 C 312.883 33.560,312.343 33.200,312.000 33.200 C 311.657 33.200,311.117 32.840,310.800 32.400 C 310.483 31.960,309.943 31.600,309.600 31.600 C 309.257 31.600,308.717 31.240,308.400 30.800 C 308.083 30.360,307.671 30.000,307.484 30.000 C 307.297 30.000,306.359 29.460,305.400 28.800 C 304.441 28.140,303.463 27.600,303.228 27.600 C 302.993 27.600,302.800 27.420,302.800 27.200 C 302.800 26.980,302.440 26.800,302.000 26.800 C 301.560 26.800,301.200 26.653,301.200 26.474 C 301.200 26.126,298.642 24.800,297.970 24.800 C 297.748 24.800,297.180 24.440,296.708 24.000 C 296.236 23.560,295.613 23.200,295.325 23.200 C 295.036 23.200,294.800 23.020,294.800 22.800 C 294.800 22.580,294.440 22.400,294.000 22.400 C 293.560 22.400,293.200 22.220,293.200 22.000 C 293.200 21.780,292.840 21.600,292.400 21.600 C 291.960 21.600,291.600 21.420,291.600 21.200 C 291.600 20.980,291.255 20.800,290.833 20.800 C 290.412 20.800,290.007 20.665,289.933 20.500 C 289.741 20.068,286.428 18.400,285.762 18.400 C 285.453 18.400,285.200 18.220,285.200 18.000 C 285.200 17.780,284.750 17.600,284.200 17.600 C 283.650 17.600,283.200 17.420,283.200 17.200 C 283.200 16.980,282.840 16.800,282.400 16.800 C 281.960 16.800,281.600 16.620,281.600 16.400 C 281.600 16.180,281.240 16.000,280.800 16.000 C 280.360 16.000,280.000 15.820,280.000 15.600 C 280.000 15.380,279.651 15.200,279.224 15.200 C 278.797 15.200,278.336 15.020,278.200 14.800 C 278.064 14.580,277.513 14.400,276.976 14.400 C 276.439 14.400,276.000 14.220,276.000 14.000 C 276.000 13.780,275.728 13.600,275.395 13.600 C 275.062 13.600,274.477 13.441,274.095 13.247 C 273.713 13.052,272.905 12.692,272.300 12.447 C 271.695 12.201,270.795 11.827,270.300 11.615 C 268.047 10.652,260.688 8.400,259.794 8.400 C 259.247 8.400,258.800 8.220,258.800 8.000 C 258.800 7.780,258.170 7.600,257.400 7.600 C 256.630 7.600,256.000 7.420,256.000 7.200 C 256.000 6.980,255.370 6.800,254.600 6.800 C 253.830 6.800,253.200 6.620,253.200 6.400 C 253.200 6.180,252.570 6.000,251.800 6.000 C 251.030 6.000,250.400 5.820,250.400 5.600 C 250.400 5.380,249.680 5.200,248.800 5.200 C 247.920 5.200,247.200 5.020,247.200 4.800 C 247.200 4.580,246.300 4.400,245.200 4.400 C 244.100 4.400,243.200 4.220,243.200 4.000 C 243.200 3.780,242.480 3.600,241.600 3.600 C 240.720 3.600,240.000 3.420,240.000 3.200 C 240.000 2.980,239.010 2.800,237.800 2.800 C 236.590 2.800,235.600 2.620,235.600 2.400 C 235.600 2.180,234.621 2.000,233.424 2.000 C 232.227 2.000,231.136 1.820,231.000 1.600 C 230.864 1.380,229.518 1.200,228.010 1.200 C 226.233 1.200,225.210 1.031,225.107 0.720 C 224.948 0.244,188.291 -0.109,178.700 0.273 M208.400 34.400 C 208.400 34.643,210.200 34.800,213.000 34.800 C 215.800 34.800,217.600 34.957,217.600 35.200 C 217.600 35.433,218.933 35.600,220.800 35.600 C 222.667 35.600,224.000 35.767,224.000 36.000 C 224.000 36.220,224.979 36.400,226.176 36.400 C 227.373 36.400,228.464 36.580,228.600 36.800 C 228.736 37.020,229.726 37.200,230.800 37.200 C 231.874 37.200,232.864 37.380,233.000 37.600 C 233.136 37.820,233.957 38.000,234.824 38.000 C 235.691 38.000,236.400 38.180,236.400 38.400 C 236.400 38.620,237.109 38.800,237.976 38.800 C 238.843 38.800,239.664 38.980,239.800 39.200 C 239.936 39.420,240.656 39.600,241.400 39.600 C 242.144 39.600,242.864 39.780,243.000 40.000 C 243.136 40.220,243.766 40.400,244.400 40.400 C 245.034 40.400,245.656 40.567,245.783 40.772 C 245.909 40.977,247.000 41.267,248.206 41.418 C 249.413 41.569,250.400 41.851,250.400 42.046 C 250.400 42.241,250.940 42.400,251.600 42.400 C 252.260 42.400,252.800 42.580,252.800 42.800 C 252.800 43.020,253.340 43.200,254.000 43.200 C 254.660 43.200,255.200 43.380,255.200 43.600 C 255.200 43.820,255.740 44.000,256.400 44.000 C 257.060 44.000,257.600 44.180,257.600 44.400 C 257.600 44.620,257.960 44.800,258.400 44.800 C 258.840 44.800,259.200 44.980,259.200 45.200 C 259.200 45.420,259.650 45.600,260.200 45.600 C 260.750 45.600,261.200 45.780,261.200 46.000 C 261.200 46.220,261.639 46.400,262.176 46.400 C 262.713 46.400,263.264 46.580,263.400 46.800 C 263.536 47.020,263.997 47.200,264.424 47.200 C 264.851 47.200,265.200 47.380,265.200 47.600 C 265.200 47.820,265.560 48.000,266.000 48.000 C 266.440 48.000,266.800 48.180,266.800 48.400 C 266.800 48.620,267.160 48.800,267.600 48.800 C 268.040 48.800,268.400 48.980,268.400 49.200 C 268.400 49.420,268.839 49.600,269.376 49.600 C 269.913 49.600,270.464 49.780,270.600 50.000 C 270.736 50.220,271.197 50.400,271.624 50.400 C 272.051 50.400,272.400 50.580,272.400 50.800 C 272.400 51.020,272.760 51.200,273.200 51.200 C 273.640 51.200,274.000 51.359,274.000 51.553 C 274.000 51.748,274.315 52.010,274.700 52.136 C 275.085 52.262,276.300 52.917,277.400 53.591 C 278.500 54.266,279.670 54.936,280.000 55.080 C 280.330 55.224,280.690 55.445,280.800 55.571 C 280.910 55.697,281.810 56.232,282.800 56.759 C 283.790 57.287,284.884 57.962,285.231 58.259 C 285.579 58.557,286.164 58.800,286.531 58.800 C 286.899 58.800,287.200 58.980,287.200 59.200 C 287.200 59.420,287.520 59.600,287.912 59.600 C 288.303 59.600,288.883 59.960,289.200 60.400 C 289.517 60.840,290.097 61.200,290.488 61.200 C 290.880 61.200,291.200 61.380,291.200 61.600 C 291.200 61.820,291.430 62.000,291.712 62.000 C 291.993 62.000,292.483 62.360,292.800 62.800 C 293.117 63.240,293.607 63.600,293.888 63.600 C 294.170 63.600,294.400 63.780,294.400 64.000 C 294.400 64.220,294.582 64.400,294.804 64.400 C 295.026 64.400,295.772 64.940,296.463 65.600 C 297.154 66.260,297.874 66.800,298.063 66.800 C 298.252 66.800,298.972 67.340,299.663 68.000 C 300.354 68.660,301.074 69.200,301.263 69.200 C 301.452 69.200,302.172 69.740,302.863 70.400 C 303.554 71.060,304.278 71.600,304.473 71.600 C 304.667 71.600,305.430 72.185,306.167 72.900 C 308.172 74.845,310.402 76.800,310.617 76.800 C 310.881 76.800,323.200 89.144,323.200 89.408 C 323.200 89.608,323.669 90.135,327.100 93.789 C 327.815 94.550,328.400 95.333,328.400 95.527 C 328.400 95.722,328.940 96.446,329.600 97.137 C 330.260 97.828,330.800 98.548,330.800 98.737 C 330.800 98.926,331.340 99.646,332.000 100.337 C 332.660 101.028,333.200 101.748,333.200 101.937 C 333.200 102.126,333.740 102.846,334.400 103.537 C 335.060 104.228,335.600 104.948,335.600 105.137 C 335.600 105.326,336.140 106.046,336.800 106.737 C 337.460 107.428,338.000 108.174,338.000 108.396 C 338.000 108.618,338.180 108.800,338.400 108.800 C 338.620 108.800,338.800 109.120,338.800 109.512 C 338.800 109.903,339.160 110.483,339.600 110.800 C 340.040 111.117,340.400 111.697,340.400 112.088 C 340.400 112.480,340.580 112.800,340.800 112.800 C 341.020 112.800,341.200 113.160,341.200 113.600 C 341.200 114.040,341.335 114.400,341.500 114.401 C 341.665 114.401,342.333 115.436,342.985 116.701 C 343.637 117.965,344.267 119.090,344.385 119.200 C 344.703 119.496,347.390 124.322,348.559 126.697 C 348.801 127.190,349.135 127.595,349.300 127.597 C 349.465 127.599,349.600 128.039,349.600 128.576 C 349.600 129.113,349.780 129.664,350.000 129.800 C 350.220 129.936,350.400 130.397,350.400 130.824 C 350.400 131.251,350.580 131.600,350.800 131.600 C 351.020 131.600,351.200 131.960,351.200 132.400 C 351.200 132.840,351.380 133.200,351.600 133.200 C 351.820 133.200,352.000 133.560,352.000 134.000 C 352.000 134.440,352.180 134.800,352.400 134.800 C 352.620 134.800,352.800 135.250,352.800 135.800 C 352.800 136.350,352.980 136.800,353.200 136.800 C 353.420 136.800,353.600 137.250,353.600 137.800 C 353.600 138.350,353.780 138.800,354.000 138.800 C 354.220 138.800,354.400 139.250,354.400 139.800 C 354.400 140.350,354.580 140.800,354.800 140.800 C 355.020 140.800,355.200 141.160,355.200 141.600 C 355.200 142.040,355.380 142.400,355.600 142.400 C 355.820 142.400,356.000 142.940,356.000 143.600 C 356.000 144.260,356.180 144.800,356.400 144.800 C 356.620 144.800,356.800 145.340,356.800 146.000 C 356.800 146.660,356.980 147.200,357.200 147.200 C 357.420 147.200,357.600 147.740,357.600 148.400 C 357.600 149.060,357.746 149.600,357.924 149.600 C 358.209 149.600,358.719 151.693,359.459 155.900 C 359.585 156.615,359.848 157.200,360.044 157.200 C 360.240 157.200,360.400 157.819,360.400 158.576 C 360.400 159.333,360.580 160.064,360.800 160.200 C 361.020 160.336,361.200 161.157,361.200 162.024 C 361.200 162.891,361.362 163.600,361.560 163.600 C 361.897 163.600,362.038 164.319,362.639 169.100 C 362.770 170.145,363.040 171.171,363.239 171.380 C 363.437 171.589,363.600 172.703,363.600 173.856 C 363.600 175.009,363.780 176.064,364.000 176.200 C 364.220 176.336,364.400 177.787,364.400 179.424 C 364.400 181.141,364.569 182.400,364.800 182.400 C 365.044 182.400,365.200 184.259,365.200 187.176 C 365.200 189.929,365.369 192.058,365.600 192.200 C 365.844 192.351,366.000 195.396,366.000 200.000 C 366.000 204.604,365.844 207.649,365.600 207.800 C 365.369 207.942,365.200 210.071,365.200 212.824 C 365.200 215.741,365.044 217.600,364.800 217.600 C 364.569 217.600,364.400 218.859,364.400 220.576 C 364.400 222.213,364.220 223.664,364.000 223.800 C 363.780 223.936,363.600 225.016,363.600 226.200 C 363.600 227.384,363.420 228.464,363.200 228.600 C 362.980 228.736,362.800 229.636,362.800 230.600 C 362.800 231.564,362.620 232.464,362.400 232.600 C 362.180 232.736,362.000 233.647,362.000 234.624 C 362.000 235.601,361.820 236.400,361.600 236.400 C 361.380 236.400,361.200 237.109,361.200 237.976 C 361.200 238.843,361.020 239.664,360.800 239.800 C 360.580 239.936,360.400 240.667,360.400 241.424 C 360.400 242.181,360.240 242.800,360.044 242.800 C 359.848 242.800,359.585 243.385,359.459 244.100 C 358.719 248.307,358.209 250.400,357.924 250.400 C 357.746 250.400,357.600 250.940,357.600 251.600 C 357.600 252.260,357.420 252.800,357.200 252.800 C 356.980 252.800,356.800 253.340,356.800 254.000 C 356.800 254.660,356.620 255.200,356.400 255.200 C 356.180 255.200,356.000 255.740,356.000 256.400 C 356.000 257.060,355.820 257.600,355.600 257.600 C 355.380 257.600,355.200 257.960,355.200 258.400 C 355.200 258.840,355.020 259.200,354.800 259.200 C 354.580 259.200,354.400 259.650,354.400 260.200 C 354.400 260.750,354.220 261.200,354.000 261.200 C 353.780 261.200,353.600 261.549,353.600 261.976 C 353.600 262.403,353.420 262.864,353.200 263.000 C 352.980 263.136,352.800 263.687,352.800 264.224 C 352.800 264.761,352.620 265.200,352.400 265.200 C 352.180 265.200,352.000 265.560,352.000 266.000 C 352.000 266.440,351.820 266.800,351.600 266.800 C 351.380 266.800,351.200 267.160,351.200 267.600 C 351.200 268.040,351.020 268.400,350.800 268.400 C 350.580 268.400,350.400 268.672,350.400 269.005 C 350.400 269.605,350.292 269.869,349.101 272.200 C 346.652 276.987,344.703 280.517,344.351 280.800 C 344.215 280.910,343.592 281.990,342.968 283.200 C 342.344 284.410,341.690 285.460,341.516 285.533 C 341.342 285.607,341.200 286.012,341.200 286.433 C 341.200 286.855,341.020 287.200,340.800 287.200 C 340.580 287.200,340.400 287.520,340.400 287.912 C 340.400 288.303,340.040 288.883,339.600 289.200 C 339.160 289.517,338.800 290.097,338.800 290.488 C 338.800 290.880,338.620 291.200,338.400 291.200 C 338.180 291.200,338.000 291.382,338.000 291.604 C 338.000 291.826,337.460 292.572,336.800 293.263 C 336.140 293.954,335.600 294.674,335.600 294.863 C 335.600 295.052,335.060 295.772,334.400 296.463 C 333.740 297.154,333.200 297.874,333.200 298.063 C 333.200 298.252,332.660 298.972,332.000 299.663 C 331.340 300.354,330.800 301.074,330.800 301.263 C 330.800 301.452,330.260 302.172,329.600 302.863 C 328.940 303.554,328.400 304.278,328.400 304.473 C 328.400 304.667,327.815 305.440,327.100 306.190 C 326.385 306.940,325.080 308.392,324.200 309.417 C 322.128 311.830,311.830 322.128,309.417 324.200 C 308.392 325.080,306.940 326.385,306.190 327.100 C 305.440 327.815,304.667 328.400,304.473 328.400 C 304.278 328.400,303.554 328.940,302.863 329.600 C 302.172 330.260,301.452 330.800,301.263 330.800 C 301.074 330.800,300.354 331.340,299.663 332.000 C 298.972 332.660,298.252 333.200,298.063 333.200 C 297.874 333.200,297.154 333.740,296.463 334.400 C 295.772 335.060,295.052 335.600,294.863 335.600 C 294.674 335.600,293.954 336.140,293.263 336.800 C 292.572 337.460,291.826 338.000,291.604 338.000 C 291.382 338.000,291.200 338.180,291.200 338.400 C 291.200 338.620,290.880 338.800,290.488 338.800 C 290.097 338.800,289.517 339.160,289.200 339.600 C 288.883 340.040,288.303 340.400,287.912 340.400 C 287.520 340.400,287.200 340.580,287.200 340.800 C 287.200 341.020,286.840 341.200,286.400 341.200 C 285.960 341.200,285.600 341.335,285.599 341.500 C 285.599 341.665,284.564 342.333,283.299 342.985 C 282.035 343.637,280.910 344.267,280.800 344.385 C 280.504 344.703,275.678 347.390,273.303 348.559 C 272.810 348.801,272.405 349.135,272.403 349.300 C 272.401 349.465,271.961 349.600,271.424 349.600 C 270.887 349.600,270.336 349.780,270.200 350.000 C 270.064 350.220,269.603 350.400,269.176 350.400 C 268.749 350.400,268.400 350.580,268.400 350.800 C 268.400 351.020,268.040 351.200,267.600 351.200 C 267.160 351.200,266.800 351.380,266.800 351.600 C 266.800 351.820,266.440 352.000,266.000 352.000 C 265.560 352.000,265.200 352.180,265.200 352.400 C 265.200 352.620,264.761 352.800,264.224 352.800 C 263.687 352.800,263.136 352.980,263.000 353.200 C 262.864 353.420,262.403 353.600,261.976 353.600 C 261.549 353.600,261.200 353.780,261.200 354.000 C 261.200 354.220,260.750 354.400,260.200 354.400 C 259.650 354.400,259.200 354.580,259.200 354.800 C 259.200 355.020,258.840 355.200,258.400 355.200 C 257.960 355.200,257.600 355.380,257.600 355.600 C 257.600 355.820,257.060 356.000,256.400 356.000 C 255.740 356.000,255.200 356.180,255.200 356.400 C 255.200 356.620,254.660 356.800,254.000 356.800 C 253.340 356.800,252.800 356.980,252.800 357.200 C 252.800 357.420,252.260 357.600,251.600 357.600 C 250.940 357.600,250.400 357.746,250.400 357.924 C 250.400 358.209,248.307 358.719,244.100 359.459 C 243.385 359.585,242.800 359.848,242.800 360.044 C 242.800 360.240,242.181 360.400,241.424 360.400 C 240.667 360.400,239.936 360.580,239.800 360.800 C 239.664 361.020,238.843 361.200,237.976 361.200 C 237.109 361.200,236.400 361.362,236.400 361.560 C 236.400 361.897,235.681 362.038,230.900 362.639 C 229.855 362.770,228.829 363.040,228.620 363.239 C 228.411 363.437,227.286 363.600,226.120 363.600 C 224.954 363.600,224.000 363.780,224.000 364.000 C 224.000 364.233,222.667 364.400,220.800 364.400 C 218.933 364.400,217.600 364.567,217.600 364.800 C 217.600 365.044,215.741 365.200,212.824 365.200 C 210.071 365.200,207.942 365.369,207.800 365.600 C 207.649 365.844,204.604 366.000,200.000 366.000 C 195.396 366.000,192.351 365.844,192.200 365.600 C 192.058 365.369,189.929 365.200,187.176 365.200 C 184.259 365.200,182.400 365.044,182.400 364.800 C 182.400 364.569,181.141 364.400,179.424 364.400 C 177.787 364.400,176.336 364.220,176.200 364.000 C 176.064 363.780,174.984 363.600,173.800 363.600 C 172.616 363.600,171.536 363.420,171.400 363.200 C 171.264 362.980,170.364 362.800,169.400 362.800 C 168.436 362.800,167.536 362.620,167.400 362.400 C 167.264 362.180,166.353 362.000,165.376 362.000 C 164.399 362.000,163.600 361.820,163.600 361.600 C 163.600 361.380,162.891 361.200,162.024 361.200 C 161.157 361.200,160.336 361.020,160.200 360.800 C 160.064 360.580,159.333 360.400,158.576 360.400 C 157.819 360.400,157.200 360.240,157.200 360.044 C 157.200 359.848,156.615 359.585,155.900 359.459 C 151.693 358.719,149.600 358.209,149.600 357.924 C 149.600 357.746,149.060 357.600,148.400 357.600 C 147.740 357.600,147.200 357.420,147.200 357.200 C 147.200 356.980,146.660 356.800,146.000 356.800 C 145.340 356.800,144.800 356.620,144.800 356.400 C 144.800 356.180,144.260 356.000,143.600 356.000 C 142.940 356.000,142.400 355.820,142.400 355.600 C 142.400 355.380,142.040 355.200,141.600 355.200 C 141.160 355.200,140.800 355.020,140.800 354.800 C 140.800 354.580,140.350 354.400,139.800 354.400 C 139.250 354.400,138.800 354.220,138.800 354.000 C 138.800 353.780,138.451 353.600,138.024 353.600 C 137.597 353.600,137.136 353.420,137.000 353.200 C 136.864 352.980,136.313 352.800,135.776 352.800 C 135.239 352.800,134.800 352.620,134.800 352.400 C 134.800 352.180,134.440 352.000,134.000 352.000 C 133.560 352.000,133.200 351.820,133.200 351.600 C 133.200 351.380,132.840 351.200,132.400 351.200 C 131.960 351.200,131.600 351.020,131.600 350.800 C 131.600 350.580,131.328 350.400,130.995 350.400 C 130.395 350.400,130.131 350.292,127.800 349.101 C 123.013 346.652,119.483 344.703,119.200 344.351 C 119.090 344.215,118.010 343.592,116.800 342.968 C 115.590 342.344,114.540 341.690,114.467 341.516 C 114.393 341.342,113.988 341.200,113.567 341.200 C 113.145 341.200,112.800 341.020,112.800 340.800 C 112.800 340.580,112.480 340.400,112.088 340.400 C 111.697 340.400,111.117 340.040,110.800 339.600 C 110.483 339.160,109.903 338.800,109.512 338.800 C 109.120 338.800,108.800 338.620,108.800 338.400 C 108.800 338.180,108.618 338.000,108.396 338.000 C 108.174 338.000,107.428 337.460,106.737 336.800 C 106.046 336.140,105.326 335.600,105.137 335.600 C 104.948 335.600,104.228 335.060,103.537 334.400 C 102.846 333.740,102.126 333.200,101.937 333.200 C 101.748 333.200,101.028 332.660,100.337 332.000 C 99.646 331.340,98.926 330.800,98.737 330.800 C 98.548 330.800,97.828 330.260,97.137 329.600 C 96.446 328.940,95.723 328.400,95.529 328.400 C 95.189 328.400,94.403 327.713,90.607 324.100 C 89.625 323.165,88.725 322.400,88.607 322.400 C 88.326 322.400,77.600 311.673,77.600 311.392 C 77.600 311.181,76.687 310.165,73.300 306.607 C 72.365 305.625,71.600 304.663,71.600 304.470 C 71.600 304.277,71.060 303.554,70.400 302.863 C 69.740 302.172,69.200 301.452,69.200 301.263 C 69.200 301.074,68.660 300.354,68.000 299.663 C 67.340 298.972,66.800 298.252,66.800 298.063 C 66.800 297.874,66.260 297.154,65.600 296.463 C 64.940 295.772,64.400 295.052,64.400 294.863 C 64.400 294.674,63.860 293.954,63.200 293.263 C 62.540 292.572,62.000 291.826,62.000 291.604 C 62.000 291.382,61.820 291.200,61.600 291.200 C 61.380 291.200,61.200 290.880,61.200 290.488 C 61.200 290.097,60.840 289.517,60.400 289.200 C 59.960 288.883,59.600 288.303,59.600 287.912 C 59.600 287.520,59.420 287.200,59.200 287.200 C 58.980 287.200,58.800 286.853,58.800 286.429 C 58.800 286.004,58.575 285.419,58.300 285.129 C 58.025 284.838,57.363 283.790,56.830 282.800 C 56.296 281.810,55.756 280.910,55.630 280.800 C 55.290 280.504,53.246 276.789,50.899 272.200 C 49.708 269.869,49.600 269.605,49.600 269.005 C 49.600 268.672,49.420 268.400,49.200 268.400 C 48.980 268.400,48.800 268.040,48.800 267.600 C 48.800 267.160,48.620 266.800,48.400 266.800 C 48.180 266.800,48.000 266.440,48.000 266.000 C 48.000 265.560,47.820 265.200,47.600 265.200 C 47.380 265.200,47.200 264.761,47.200 264.224 C 47.200 263.687,47.020 263.136,46.800 263.000 C 46.580 262.864,46.400 262.403,46.400 261.976 C 46.400 261.549,46.220 261.200,46.000 261.200 C 45.780 261.200,45.600 260.750,45.600 260.200 C 45.600 259.650,45.420 259.200,45.200 259.200 C 44.980 259.200,44.800 258.840,44.800 258.400 C 44.800 257.960,44.620 257.600,44.400 257.600 C 44.180 257.600,44.000 257.060,44.000 256.400 C 44.000 255.740,43.820 255.200,43.600 255.200 C 43.380 255.200,43.200 254.660,43.200 254.000 C 43.200 253.340,43.020 252.800,42.800 252.800 C 42.580 252.800,42.400 252.260,42.400 251.600 C 42.400 250.940,42.254 250.400,42.076 250.400 C 41.791 250.400,41.281 248.307,40.541 244.100 C 40.415 243.385,40.152 242.800,39.956 242.800 C 39.760 242.800,39.600 242.181,39.600 241.424 C 39.600 240.667,39.420 239.936,39.200 239.800 C 38.980 239.664,38.800 238.843,38.800 237.976 C 38.800 237.109,38.620 236.400,38.400 236.400 C 38.180 236.400,38.000 235.601,38.000 234.624 C 38.000 233.647,37.820 232.736,37.600 232.600 C 37.380 232.464,37.200 231.564,37.200 230.600 C 37.200 229.636,37.020 228.736,36.800 228.600 C 36.580 228.464,36.400 227.384,36.400 226.200 C 36.400 225.016,36.220 223.936,36.000 223.800 C 35.780 223.664,35.600 222.213,35.600 220.576 C 35.600 218.859,35.431 217.600,35.200 217.600 C 34.956 217.600,34.800 215.741,34.800 212.824 C 34.800 210.071,34.631 207.942,34.400 207.800 C 33.861 207.467,33.861 192.533,34.400 192.200 C 34.631 192.058,34.800 189.929,34.800 187.176 C 34.800 184.259,34.956 182.400,35.200 182.400 C 35.431 182.400,35.600 181.141,35.600 179.424 C 35.600 177.787,35.780 176.336,36.000 176.200 C 36.220 176.064,36.400 175.009,36.400 173.856 C 36.400 172.703,36.563 171.589,36.761 171.380 C 36.960 171.171,37.230 170.145,37.361 169.100 C 37.962 164.319,38.103 163.600,38.440 163.600 C 38.638 163.600,38.800 162.891,38.800 162.024 C 38.800 161.157,38.980 160.336,39.200 160.200 C 39.420 160.064,39.600 159.333,39.600 158.576 C 39.600 157.819,39.760 157.200,39.956 157.200 C 40.152 157.200,40.415 156.615,40.541 155.900 C 41.281 151.693,41.791 149.600,42.076 149.600 C 42.254 149.600,42.400 149.060,42.400 148.400 C 42.400 147.740,42.580 147.200,42.800 147.200 C 43.020 147.200,43.200 146.660,43.200 146.000 C 43.200 145.340,43.380 144.800,43.600 144.800 C 43.820 144.800,44.000 144.260,44.000 143.600 C 44.000 142.940,44.180 142.400,44.400 142.400 C 44.620 142.400,44.800 142.040,44.800 141.600 C 44.800 141.160,44.980 140.800,45.200 140.800 C 45.420 140.800,45.600 140.350,45.600 139.800 C 45.600 139.250,45.780 138.800,46.000 138.800 C 46.220 138.800,46.400 138.451,46.400 138.024 C 46.400 137.597,46.580 137.136,46.800 137.000 C 47.020 136.864,47.200 136.313,47.200 135.776 C 47.200 135.239,47.380 134.800,47.600 134.800 C 47.820 134.800,48.000 134.440,48.000 134.000 C 48.000 133.560,48.180 133.200,48.400 133.200 C 48.620 133.200,48.800 132.840,48.800 132.400 C 48.800 131.960,48.980 131.600,49.200 131.600 C 49.420 131.600,49.600 131.251,49.600 130.824 C 49.600 130.397,49.780 129.936,50.000 129.800 C 50.220 129.664,50.400 129.113,50.400 128.576 C 50.400 128.039,50.535 127.599,50.700 127.597 C 50.865 127.595,51.199 127.190,51.441 126.697 C 52.544 124.457,55.285 119.515,55.600 119.200 C 55.710 119.090,55.997 118.640,56.238 118.200 C 57.323 116.215,57.835 115.393,58.300 114.887 C 58.575 114.588,58.800 113.996,58.800 113.571 C 58.800 113.147,58.980 112.800,59.200 112.800 C 59.420 112.800,59.600 112.480,59.600 112.088 C 59.600 111.697,59.960 111.117,60.400 110.800 C 60.840 110.483,61.200 109.903,61.200 109.512 C 61.200 109.120,61.380 108.800,61.600 108.800 C 61.820 108.800,62.000 108.618,62.000 108.396 C 62.000 108.174,62.540 107.428,63.200 106.737 C 63.860 106.046,64.400 105.326,64.400 105.137 C 64.400 104.948,64.940 104.228,65.600 103.537 C 66.260 102.846,66.800 102.126,66.800 101.937 C 66.800 101.748,67.340 101.028,68.000 100.337 C 68.660 99.646,69.200 98.926,69.200 98.737 C 69.200 98.548,69.740 97.828,70.400 97.137 C 71.060 96.446,71.600 95.723,71.600 95.530 C 71.600 95.337,72.365 94.389,73.300 93.424 C 74.235 92.459,75.540 91.000,76.200 90.181 C 77.757 88.250,88.250 77.757,90.181 76.200 C 91.000 75.540,92.459 74.235,93.424 73.300 C 94.389 72.365,95.337 71.600,95.530 71.600 C 95.723 71.600,96.446 71.060,97.137 70.400 C 97.828 69.740,98.548 69.200,98.737 69.200 C 98.926 69.200,99.646 68.660,100.337 68.000 C 101.028 67.340,101.748 66.800,101.937 66.800 C 102.126 66.800,102.846 66.260,103.537 65.600 C 104.228 64.940,104.948 64.400,105.137 64.400 C 105.326 64.400,106.046 63.860,106.737 63.200 C 107.428 62.540,108.174 62.000,108.396 62.000 C 108.618 62.000,108.800 61.820,108.800 61.600 C 108.800 61.380,109.120 61.200,109.512 61.200 C 109.903 61.200,110.483 60.840,110.800 60.400 C 111.117 59.960,111.697 59.600,112.088 59.600 C 112.480 59.600,112.800 59.420,112.800 59.200 C 112.800 58.980,113.147 58.800,113.571 58.800 C 113.996 58.800,114.588 58.575,114.887 58.300 C 115.397 57.832,115.840 57.555,118.100 56.300 C 118.595 56.025,119.090 55.710,119.200 55.600 C 119.515 55.285,124.457 52.544,126.697 51.441 C 127.190 51.199,127.595 50.865,127.597 50.700 C 127.599 50.535,127.949 50.400,128.376 50.400 C 128.803 50.400,129.264 50.220,129.400 50.000 C 129.536 49.780,130.087 49.600,130.624 49.600 C 131.161 49.600,131.600 49.420,131.600 49.200 C 131.600 48.980,131.960 48.800,132.400 48.800 C 132.840 48.800,133.200 48.620,133.200 48.400 C 133.200 48.180,133.560 48.000,134.000 48.000 C 134.440 48.000,134.800 47.820,134.800 47.600 C 134.800 47.380,135.250 47.200,135.800 47.200 C 136.350 47.200,136.800 47.020,136.800 46.800 C 136.800 46.580,137.250 46.400,137.800 46.400 C 138.350 46.400,138.800 46.220,138.800 46.000 C 138.800 45.780,139.250 45.600,139.800 45.600 C 140.350 45.600,140.800 45.420,140.800 45.200 C 140.800 44.980,141.160 44.800,141.600 44.800 C 142.040 44.800,142.400 44.620,142.400 44.400 C 142.400 44.180,142.940 44.000,143.600 44.000 C 144.260 44.000,144.800 43.820,144.800 43.600 C 144.800 43.380,145.340 43.200,146.000 43.200 C 146.660 43.200,147.200 43.020,147.200 42.800 C 147.200 42.580,147.740 42.400,148.400 42.400 C 149.060 42.400,149.600 42.241,149.600 42.046 C 149.600 41.851,150.587 41.569,151.794 41.418 C 153.000 41.267,154.091 40.977,154.217 40.772 C 154.344 40.567,154.966 40.400,155.600 40.400 C 156.234 40.400,156.864 40.220,157.000 40.000 C 157.136 39.780,157.856 39.600,158.600 39.600 C 159.344 39.600,160.064 39.420,160.200 39.200 C 160.336 38.980,161.157 38.800,162.024 38.800 C 162.891 38.800,163.600 38.620,163.600 38.400 C 163.600 38.180,164.309 38.000,165.176 38.000 C 166.043 38.000,166.864 37.820,167.000 37.600 C 167.136 37.380,168.126 37.200,169.200 37.200 C 170.274 37.200,171.264 37.020,171.400 36.800 C 171.536 36.580,172.627 36.400,173.824 36.400 C 175.021 36.400,176.000 36.220,176.000 36.000 C 176.000 35.767,177.333 35.600,179.200 35.600 C 181.067 35.600,182.400 35.433,182.400 35.200 C 182.400 34.957,184.200 34.800,187.000 34.800 C 189.800 34.800,191.600 34.643,191.600 34.400 C 191.600 34.146,194.667 34.000,200.000 34.000 C 205.333 34.000,208.400 34.146,208.400 34.400 M145.114 141.882 C 144.517 141.974,143.572 142.593,143.014 143.256 L 142.000 144.461 142.000 200.202 L 142.000 255.943 143.347 257.372 L 144.694 258.800 199.893 258.800 L 255.092 258.800 256.154 257.965 C 258.545 256.084,258.400 259.806,258.400 200.200 C 258.400 141.432,258.507 144.507,256.399 142.599 C 255.571 141.849,149.713 141.167,145.114 141.882 " stroke="none" fill="#040404" fill-rule="evenodd"></path><path id="path1" d="" stroke="none" fill="#080404" fill-rule="evenodd"></path><path id="path2" d="" stroke="none" fill="#080404" fill-rule="evenodd"></path><path id="path3" d="" stroke="none" fill="#080404" fill-rule="evenodd"></path><path id="path4" d="" stroke="none" fill="#080404" fill-rule="evenodd"></path></g></svg>